<svg width="194" height="193" viewBox="0 0 194 193" fill="none" xmlns="http://www.w3.org/2000/svg">
<mask id="mask0_3204_9029" style="mask-type:luminance" maskUnits="userSpaceOnUse" x="0" y="0" width="194" height="193">
<path d="M118.215 36.881C122.856 36.881 126.619 40.644 126.619 45.286C126.619 49.928 122.855 53.691 118.215 53.691C113.57 53.691 109.81 49.928 109.81 45.286C109.81 40.645 113.574 36.881 118.215 36.881ZM136.198 48.896C140.84 48.896 144.603 52.659 144.603 57.301C144.603 61.943 140.839 65.706 136.198 65.706C131.554 65.706 127.794 61.943 127.794 57.301C127.794 52.659 131.556 48.896 136.198 48.896ZM148.211 66.881C152.853 66.881 156.616 70.644 156.616 75.286C156.616 79.928 152.852 83.691 148.211 83.691C143.567 83.691 139.807 79.928 139.807 75.286C139.807 70.645 143.57 66.881 148.211 66.881ZM152.434 88.098C157.076 88.098 160.836 91.859 160.836 96.5C160.836 101.141 157.075 104.902 152.434 104.902C147.792 104.902 144.031 101.141 144.031 96.5C144.031 91.859 147.792 88.098 152.434 88.098ZM148.211 109.309C152.853 109.309 156.616 113.07 156.616 117.714C156.616 122.358 152.852 126.119 148.211 126.119C143.567 126.119 139.807 122.358 139.807 117.714C139.807 113.07 143.57 109.309 148.211 109.309ZM136.198 127.295C140.84 127.295 144.603 131.056 144.603 135.7C144.603 140.344 140.839 144.105 136.198 144.105C131.554 144.105 127.794 140.344 127.794 135.7C127.794 131.056 131.556 127.295 136.198 127.295ZM118.211 139.311C122.853 139.311 126.613 143.072 126.613 147.713C126.613 152.354 122.852 156.115 118.211 156.115C113.57 156.115 109.809 152.354 109.809 147.713C109.809 143.072 113.571 139.311 118.211 139.311ZM96.9985 143.535C101.641 143.535 105.401 147.298 105.401 151.94C105.401 156.582 101.64 160.339 96.9985 160.339C92.3575 160.339 88.5965 156.581 88.5965 151.94C88.5965 147.299 92.3595 143.535 96.9985 143.535ZM75.7845 139.309C80.4265 139.309 84.1895 143.07 84.1895 147.714C84.1895 152.358 80.4265 156.119 75.7845 156.119C71.1405 156.119 67.3795 152.357 67.3795 147.714C67.3795 143.069 71.1435 139.309 75.7845 139.309ZM57.8015 127.295C62.4435 127.295 66.2035 131.056 66.2035 135.697C66.2035 140.338 62.4425 144.099 57.8015 144.099C53.1605 144.099 49.3995 140.338 49.3995 135.697C49.3995 131.056 53.1625 127.295 57.8015 127.295ZM45.7845 109.309C50.4265 109.309 54.1865 113.07 54.1865 117.711C54.1865 122.353 50.4255 126.114 45.7845 126.114C41.1435 126.114 37.3825 122.353 37.3825 117.711C37.3825 113.069 41.1455 109.309 45.7845 109.309ZM41.5655 88.098C46.2075 88.098 49.9675 91.859 49.9675 96.5C49.9675 101.141 46.2065 104.902 41.5655 104.902C36.9245 104.902 33.1635 101.141 33.1635 96.5C33.1635 91.859 36.9235 88.098 41.5655 88.098ZM45.7845 66.884C50.4265 66.884 54.1865 70.645 54.1865 75.286C54.1865 79.928 50.4255 83.689 45.7845 83.689C41.1435 83.689 37.3825 79.928 37.3825 75.286C37.3825 70.645 41.1455 66.884 45.7845 66.884ZM57.8015 48.896C62.4435 48.896 66.2065 52.659 66.2065 57.301C66.2065 61.943 62.4435 65.706 57.8015 65.706C53.1575 65.706 49.3965 61.943 49.3965 57.301C49.3965 52.659 53.1605 48.896 57.8015 48.896ZM75.7875 36.884C80.4295 36.884 84.1895 40.645 84.1895 45.286C84.1895 49.928 80.4285 53.689 75.7875 53.689C71.1465 53.689 67.3855 49.928 67.3855 45.286C67.3845 40.645 71.1485 36.884 75.7875 36.884ZM111.569 16.482C115.321 16.482 118.356 19.521 118.356 23.269C118.356 27.018 115.318 30.057 111.569 30.057C107.821 30.057 104.785 27.018 104.785 23.269C104.782 19.52 107.821 16.482 111.569 16.482ZM138.483 27.628C142.232 27.628 145.27 30.669 145.27 34.417C145.27 38.166 142.229 41.207 138.483 41.207C134.732 41.207 131.693 38.166 131.693 34.417C131.693 30.668 134.734 27.628 138.483 27.628ZM159.082 48.231C162.83 48.231 165.866 51.27 165.866 55.018C165.866 58.767 162.828 61.805 159.082 61.805C155.33 61.805 152.296 58.767 152.296 55.018C152.294 51.27 155.333 48.231 159.082 48.231ZM170.233 75.145C173.984 75.145 177.021 78.186 177.021 81.935C177.021 85.684 173.981 88.725 170.233 88.725C166.484 88.725 163.443 85.684 163.443 81.935C163.443 78.186 166.481 75.145 170.233 75.145ZM170.233 104.281C173.981 104.281 177.02 107.319 177.02 111.068C177.02 114.817 173.979 117.855 170.233 117.855C166.486 117.855 163.445 114.814 163.445 111.068C163.445 107.319 166.484 104.281 170.233 104.281ZM159.082 131.194C162.83 131.194 165.866 134.235 165.866 137.981C165.866 141.728 162.828 144.766 159.082 144.766C155.33 144.766 152.296 141.728 152.296 137.981C152.294 134.235 155.333 131.194 159.082 131.194ZM138.483 151.794C142.232 151.794 145.27 154.835 145.27 158.584C145.27 162.332 142.229 165.373 138.483 165.373C134.732 165.373 131.693 162.332 131.693 158.584C131.693 154.835 134.734 151.794 138.483 151.794ZM111.569 162.947C115.321 162.947 118.356 165.985 118.356 169.734C118.356 173.48 115.318 176.518 111.569 176.518C107.821 176.518 104.785 173.478 104.785 169.734C104.782 165.982 107.821 162.947 111.569 162.947ZM82.4325 162.947C86.1815 162.947 89.2205 165.985 89.2205 169.734C89.2205 173.48 86.1795 176.518 82.4325 176.518C78.6865 176.518 75.6455 173.478 75.6455 169.734C75.6455 165.982 78.6845 162.947 82.4325 162.947ZM55.5165 151.796C59.2655 151.796 62.3045 154.837 62.3045 158.583C62.3045 162.329 59.2635 165.367 55.5165 165.367C51.7705 165.367 48.7295 162.329 48.7295 158.583C48.7295 154.837 51.7705 151.796 55.5165 151.796ZM34.9175 131.194C38.6665 131.194 41.7055 134.235 41.7055 137.981C41.7055 141.728 38.6645 144.766 34.9175 144.766C31.1715 144.766 28.1305 141.728 28.1305 137.981C28.1305 134.235 31.1715 131.194 34.9175 131.194ZM23.7675 104.276C27.5185 104.276 30.5555 107.315 30.5555 111.063C30.5555 114.812 27.5165 117.85 23.7675 117.85C20.0185 117.85 16.9825 114.809 16.9825 111.063C16.9805 107.315 20.0185 104.276 23.7675 104.276ZM23.7675 75.145C27.5185 75.145 30.5555 78.184 30.5555 81.933C30.5555 85.682 27.5165 88.72 23.7675 88.72C20.0185 88.72 16.9825 85.681 16.9825 81.933C16.9805 78.183 20.0185 75.145 23.7675 75.145ZM34.9175 48.231C38.6665 48.231 41.7055 51.27 41.7055 55.018C41.7055 58.767 38.6645 61.805 34.9175 61.805C31.1715 61.805 28.1305 58.767 28.1305 55.018C28.1305 51.27 31.1715 48.231 34.9175 48.231ZM55.5165 27.629C59.2655 27.629 62.3045 30.668 62.3045 34.416C62.3045 38.165 59.2635 41.203 55.5165 41.203C51.7705 41.203 48.7295 38.165 48.7295 34.416C48.7295 30.668 51.7705 27.629 55.5165 27.629ZM131.743 7.412C134.622 7.412 136.953 9.745 136.953 12.622C136.953 15.5 134.622 17.832 131.743 17.832C128.866 17.832 126.534 15.499 126.534 12.622C126.534 9.745 128.866 7.412 131.743 7.412ZM161.197 27.089C164.074 27.089 166.409 29.422 166.409 32.302C166.409 35.182 164.074 37.515 161.197 37.515C158.316 37.515 155.983 35.182 155.983 32.302C155.983 29.422 158.316 27.089 161.197 27.089ZM180.876 56.545C183.755 56.545 186.09 58.878 186.09 61.758C186.09 64.638 183.755 66.971 180.876 66.971C177.996 66.971 175.661 64.638 175.661 61.758C175.661 58.878 177.996 56.545 180.876 56.545ZM187.789 91.287C190.667 91.287 193.001 93.62 193.001 96.5C193.001 99.377 190.667 101.713 187.789 101.713C184.909 101.713 182.576 99.378 182.576 96.5C182.576 93.62 184.909 91.287 187.789 91.287ZM180.876 126.032C183.751 126.032 186.086 128.367 186.086 131.245C186.086 134.12 183.751 136.453 180.876 136.453C177.998 136.453 175.664 134.12 175.664 131.245C175.667 128.365 177.998 126.032 180.876 126.032ZM161.197 155.488C164.072 155.488 166.406 157.82 166.406 160.697C166.406 163.576 164.072 165.908 161.197 165.908C158.318 165.908 155.986 163.576 155.986 160.697C155.986 157.82 158.318 155.488 161.197 155.488ZM131.743 175.165C134.624 175.165 136.957 177.5 136.957 180.378C136.957 183.256 134.624 185.591 131.743 185.591C128.866 185.591 126.531 183.256 126.531 180.378C126.531 177.5 128.866 175.165 131.743 175.165ZM96.9985 182.08C99.8765 182.08 102.21 184.412 102.21 187.29C102.21 190.165 99.8765 192.5 96.9985 192.5C94.1215 192.5 91.7885 190.165 91.7885 187.29C91.7885 184.412 94.1215 182.08 96.9985 182.08ZM62.2555 175.165C65.1335 175.165 67.4655 177.5 67.4655 180.378C67.4655 183.256 65.1325 185.588 62.2555 185.588C59.3805 185.588 57.0455 183.256 57.0455 180.378C57.0455 177.5 59.3785 175.165 62.2555 175.165ZM32.8005 155.485C35.6775 155.485 38.0135 157.818 38.0135 160.697C38.0135 163.578 35.6785 165.91 32.8005 165.91C29.9205 165.91 27.5875 163.578 27.5875 160.697C27.5875 157.818 29.9205 155.485 32.8005 155.485ZM13.1235 126.032C16.0015 126.032 18.3365 128.367 18.3365 131.245C18.3365 134.125 16.0015 136.458 13.1235 136.458C10.2465 136.458 7.91151 134.125 7.91151 131.245C7.91151 128.365 10.2455 126.032 13.1235 126.032ZM6.21151 91.287C9.08851 91.287 11.4235 93.62 11.4235 96.5C11.4235 99.377 9.08851 101.713 6.21151 101.713C3.33351 101.713 0.998505 99.378 0.998505 96.5C0.998505 93.62 3.33351 91.287 6.21151 91.287ZM13.1235 56.543C16.0015 56.543 18.3365 58.876 18.3365 61.756C18.3365 64.636 16.0015 66.968 13.1235 66.968C10.2465 66.968 7.91151 64.635 7.91151 61.756C7.91051 58.875 10.2455 56.543 13.1235 56.543ZM32.8035 27.092C35.6805 27.092 38.0135 29.425 38.0135 32.302C38.0135 35.18 35.6805 37.512 32.8035 37.512C29.9265 37.512 27.5935 35.179 27.5935 32.302C27.5925 29.425 29.9255 27.092 32.8035 27.092ZM62.2555 7.41C65.1355 7.41 67.4685 9.745 67.4685 12.622C67.4685 15.502 65.1355 17.835 62.2555 17.835C59.3785 17.835 57.0435 15.5 57.0435 12.622C57.0435 9.745 59.3765 7.41 62.2555 7.41ZM82.4325 16.479C86.1815 16.479 89.2205 19.518 89.2205 23.266C89.2205 27.015 86.1795 30.053 82.4325 30.053C78.6865 30.053 75.6455 27.015 75.6455 23.266C75.6455 19.518 78.6845 16.479 82.4325 16.479ZM96.9985 32.663C101.641 32.663 105.401 36.424 105.401 41.065C105.401 45.706 101.64 49.467 96.9985 49.467C92.3575 49.467 88.5965 45.706 88.5965 41.065C88.5965 36.424 92.3595 32.663 96.9985 32.663ZM96.9985 0.5C99.8765 0.5 102.21 2.833 102.21 5.71C102.21 8.587 99.8765 10.92 96.9985 10.92C94.1215 10.92 91.7885 8.587 91.7885 5.71C91.7885 2.835 94.1215 0.5 96.9985 0.5Z" fill="white"/>
</mask>
<g mask="url(#mask0_3204_9029)">
<mask id="mask1_3204_9029" style="mask-type:luminance" maskUnits="userSpaceOnUse" x="-3" y="0" width="200" height="193">
<path d="M196.201 0.5H-2.20049V192.5H196.201V0.5Z" fill="white"/>
</mask>
<g mask="url(#mask1_3204_9029)">
<path d="M196.201 0.5H-2.20049V192.5H196.201V0.5Z" fill="url(#paint0_linear_3204_9029)"/>
</g>
</g>
<defs>
<linearGradient id="paint0_linear_3204_9029" x1="97.0152" y1="1.269" x2="97.0152" y2="188.546" gradientUnits="userSpaceOnUse">
<stop stop-color="#EF426F"/>
<stop offset="1" stop-color="#5C068C"/>
</linearGradient>
</defs>
</svg>
