<svg width="255" height="161" viewBox="0 0 255 161" fill="none" xmlns="http://www.w3.org/2000/svg">
<path opacity="0.32" d="M185.816 160.408L130.728 143.16L62.456 128.12L12.808 111.16L48.28 69.8801L192.808 121.592L185.816 160.408Z" fill="#919BAA"/>
<path d="M0.280029 85.5441L62.168 126.92L130.728 42.2001L68.856 0.808105L0.280029 85.5441Z" fill="#EAEDEF"/>
<path d="M62.168 126.92L123.64 119.032L192.6 34.312L130.728 42.2L62.168 126.92Z" fill="#F9FBFC"/>
<path d="M123.64 119.032L185.128 160.408L254.088 76.0881L192.6 34.2961L123.64 119.032Z" fill="#E9EDEF"/>
<path d="M70.568 87.7681L73.816 90.0241L113.144 41.6561L109.896 39.2881L70.568 87.7681ZM92.168 73.6561L95.416 75.9121L119.16 46.7761L115.912 44.4081L92.168 73.6561Z" fill="#CBD0E0"/>
<path d="M90.936 99.1761L94.376 98.7761L133.08 50.6001H129.528L90.936 99.1761ZM112.008 91.7841L115.448 91.3841L129.656 73.6561H126.104L112.008 91.7841ZM129.656 69.3201L133.096 68.9201L147.288 51.2081H143.736L129.656 69.3201ZM106.392 88.7761L109.832 88.3761L139.992 50.6481H136.44L106.392 88.7761Z" fill="#E3E8F2"/>
<path d="M134.728 105.736L124.984 106.808L156.12 67.8161L166.36 66.6321L134.728 105.736Z" fill="#E4E9EE"/>
<path d="M134.728 105.736L152.376 117.752L183.896 78.3602L166.36 66.6322L134.728 105.736ZM46.328 55.6882L63.608 68.2162L96.28 29.7522L79.096 17.5122L46.328 55.6882ZM209.752 103.368L212.856 105.768L236.536 76.8082L233.016 74.2962L209.752 103.368Z" fill="#C9D0DE"/>
</svg>
